<?xml version="1.0" encoding="UTF-8" standalone="no"?>
<svg
   viewBox="0 0 838.01 199.47"
   version="1.1"
   id="svg48"
   sodipodi:docname="logo-dark (1).svg"
   inkscape:version="1.2.1 (9c6d41e4, 2022-07-14)"
   xmlns:inkscape="http://www.inkscape.org/namespaces/inkscape"
   xmlns:sodipodi="http://sodipodi.sourceforge.net/DTD/sodipodi-0.dtd"
   xmlns="http://www.w3.org/2000/svg"
   xmlns:svg="http://www.w3.org/2000/svg">
  <defs
     id="defs52" />
  <sodipodi:namedview
     id="namedview50"
     pagecolor="#ffffff"
     bordercolor="#000000"
     borderopacity="0.25"
     inkscape:showpageshadow="2"
     inkscape:pageopacity="0.0"
     inkscape:pagecheckerboard="0"
     inkscape:deskcolor="#d1d1d1"
     showgrid="false"
     inkscape:zoom="0.85219114"
     inkscape:cx="530.39744"
     inkscape:cy="160.76206"
     inkscape:window-width="1440"
     inkscape:window-height="900"
     inkscape:window-x="0"
     inkscape:window-y="0"
     inkscape:window-maximized="0"
     inkscape:current-layer="svg48" />
  <path
     id="path44"
     style="fill:#120e3c;fill-opacity:1"
     d="m 635.78906,-0.05078125 c -1.73,1.67999155 -4.07,3.00000965 -5,5.00000005 -8.77995,18.7099052 -17.33825,37.5104072 -25.9082,56.3203122 -2.73,5.98997 -5.65013,11.550083 -13.33008,12.330078 -1.12,0.12 -2.12109,2.201099 -3.12109,3.371094 1.35,0.789995 2.69059,2.259766 4.06054,2.259766 8.41,0.24 16.94021,0.269995 25.41016,0 1.57,-0.05 4.11945,-1.470713 4.43945,-2.720703 0.74,-2.949985 -2.00031,-2.829927 -4.07031,-3.169922 -6.53995,-1.069995 -7.33937,-2.550191 -4.85937,-8.660156 0.36,-0.89 0.75914,-1.770162 1.11914,-2.660157 5.19995,-12.689935 5.19161,-12.689453 18.85156,-12.689453 8.88995,-0.01 8.8893,-0.01042 12.2793,8.519531 0.88,2.22999 1.79992,4.449468 2.66992,6.689453 2.77,7.109965 2.31964,7.71001 -5.07031,9 -1.44,0.3 -3.58024,1.84001 -3.74024,3 -0.38,2.87999 2.09078,2.96086 4.30078,2.88086 6.88,-0.24 13.77044,-0.609375 20.65039,-0.609375 15.18995,0.08 30.3899,0.379844 45.58985,0.589844 0.32,0 0.71945,0.149995 0.93945,0 1.12,-0.72 3.08,-1.629532 3,-2.269532 a 5.2,5.2 0 0 0 -2.2793,-3.419921 c -1.31,-0.75 -3.08992,-0.621876 -4.66992,-0.921876 -5.99995,-1.13999 -7.04117,-2.238311 -6.95117,-8.238281 0.19,-12.819935 0.49047,-25.640768 0.73047,-38.470703 v -6.089844 c 2.52,2.42999 4.06953,3.819307 5.51953,5.279297 17.4199,17.469915 34.79041,35.011418 52.32031,52.361328 1.6,1.559995 4.30024,2.000005 6.49024,3 0.7,-2.11999 1.94,-4.240869 2,-6.380859 0.51,-19.229905 0.75945,-38.469314 1.18945,-57.699219 0.14,-6.21997 1.28067,-7.3813339 7.39062,-8.6113279 1.1,-0.219999 2.41977,-0.068672 3.25977,-0.6386719 a 26,26 0 0 0 3.56055,-3.4804687 c -1.35,-0.799996 -2.66,-2.3105469 -4,-2.3105469 -9.74995,-0.179999 -19.51154,-0.070312 -29.27149,-0.070312 -0.32,0 -0.73922,-0.149999 -0.94922,0 -1.14,0.829996 -2.23961,1.7313326 -3.34961,2.6113281 0.93,1.1299945 1.66008,2.6689088 2.83008,3.1289063 2.04,0.809996 4.37055,0.8498462 6.56055,1.3398437 3.39,0.7599965 5.20898,2.8014218 5.20898,6.4414068 V 56.380859 C 758.13989,55.240869 757.49,54.830781 757,54.300781 739.92676,37.434199 722.83398,20.523561 705.7207,3.5703125 c -0.87,-0.8599955 -2,-2.1210937 -3,-2.1210937 -7.01995,-0.209999 -14.08008,-0.219999 -21.08008,0 -0.94995,0.03 -2.70007,1.8613316 -2.58007,2.6113281 a 4.73,4.73 0 0 0 2.65039,3 c 2.05,0.799996 4.38883,0.8401592 6.54883,1.4101562 3.12995,0.819996 4.90976,2.7702499 4.75976,6.2402349 -0.75,17.13991 -1.4402,34.280011 -2.16015,51.419921 -0.15,3.559985 -2.10024,5.429068 -5.49024,6.289063 -11.08995,2.809985 -17.72989,-0.43091 -22.08984,-11.13086 -7.62,-18.689905 -15.11919,-37.428454 -22.86914,-56.0683589 -0.85,-2.0499895 -3.0511,-3.5314929 -4.6211,-5.27148435 z m 176.0918,0.1015625 C 804.69091,-0.32921685 797.92031,1.2996319 792.07031,5.8496094 780.58036,14.649565 780.52005,28.969181 792.25,37.369141 c 4.67,3.32998 9.94008,5.820327 14.83008,8.820312 4.41995,2.779985 9.17,5.319859 13,8.839844 5.70995,5.229975 3.41015,15.410718 -3.58985,18.470703 -8.63995,3.73998 -20.01106,-0.07013 -24.54101,-8.330078 -1.3,-2.37999 -2.0093,-5.120088 -3.5293,-7.330078 a 5.94,5.94 0 0 0 -4.17969,-2 c -0.70995,-0.09 -2.21992,1.910161 -2.16992,2.910156 0.31,6.18997 0.95875,12.37003 1.46875,18.25 5.78,1.109995 11.07091,2.27938 16.38086,3.109375 9.34995,1.50999 18.46005,1.519662 27,-3.570313 10.62995,-6.329965 16.81987,-25.928721 1.16992,-35.638671 -3.39995,-2.12999 -6.87078,-4.13087 -10.30078,-6.13086 -5.33995,-3.189985 -10.78,-6.25041 -16,-9.65039 -3.57995,-2.28999 -5.26812,-6.23002 -3.57812,-10 1.32,-3.049985 4,-6.4186787 7,-7.6386722 9.15995,-3.7899815 17.30914,0.4298137 20.61914,9.7597652 0.41,1.209995 0.5602,2.800005 1.41015,3.5 A 5.55,5.55 0 0 0 831.33984,22 c 0.92,-0.24 2.1,-2.170239 2,-3.240234 -0.52,-5.509975 -1.41898,-10.9901851 -2.20898,-16.6601566 -6.54995,-0.7199965 -12.88005,-1.6988299 -19.25,-2.04882815 z M 554.49219,0.09179687 C 547.27591,0.29308857 540.14222,1.4289213 533.15039,4.4101562 508.05054,15.120102 499.3806,43.579167 515.31055,64.289062 c 8.69995,11.299945 21.099,16.300626 34.8789,16.390626 12.07995,0.07 24.16998,-1.679693 36.41993,-2.679688 1.50995,-6.47997 2.95093,-11.90065 3.96093,-17.390625 0.28,-1.50999 -0.80953,-3.269932 -1.26953,-4.919922 -1.67,0.859995 -3.70992,1.370166 -4.91992,2.660156 -2.88,2.989985 -4.81,7.020948 -8,9.460938 -10.56995,8.09996 -22.4906,9.539032 -34.31055,3.539062 -12.7999,-6.459965 -18.48945,-17.78007 -17.93945,-32 0.52,-13.52993 6.43919,-24.240342 18.86914,-30.0703121 15.1399,-7.0799645 29.07919,-2.0884429 37.61914,12.2714841 0.73,1.229995 2.99086,1.818594 4.63086,2.058594 0.51,0.07 2.03062,-2.089849 1.89062,-3.089844 -0.81995,-6.13997 -2,-12.2793266 -3,-18.2792966 -4.43995,-0.4799975 -8.56145,-0.9496114 -12.6914,-1.3496094 -3.2475,-0.31249845 -6.48645,-0.5800007 -9.71484,-0.72265625 -2.42133,-0.10699164 -4.83677,-0.1432691 -7.24219,-0.07617188 z M 132.5625,0.22265625 c -2.98101,0.29613132 -3.50711,4.34016875 -4.66211,6.81640625 -8.45995,18.1499095 -16.70966,36.4018915 -25.09961,54.5917965 -2.57,5.589975 -5.231753,11.080005 -12.511718,12 -1.33999,0.17 -2.438442,2.218677 -3.648437,3.388672 1.459995,0.799995 2.958994,2.28125 4.458984,2.28125 8.30996,0.23 16.629501,0.119141 24.939451,0.119141 0.48,0 1.11188,0.23 1.42188,0 1.12,-0.839995 2.13922,-1.829771 3.19922,-2.759766 a 21,21 0 0 0 -3,-3 6.57,6.57 0 0 0 -2.80078,-0.529297 c -4.25,-0.499995 -5.59,-2.739941 -4,-6.669921 C 112.83933,61.560958 114.76,56.619589 117,51.849609 a 4.82,4.82 0 0 1 3.40039,-2.36914 c 5.75995,-0.23 11.54055,-0.19 17.31055,0 1.17,0.04 2.95937,0.868833 3.35937,1.798828 2.38,5.56997 4.51036,11.28003 6.57031,17 0.84,2.32999 0.0991,4.130317 -2.63085,4.570312 -1.43,0.23 -2.93024,0.06047 -4.24024,0.730469 -1.31,0.669995 -2.28992,2.000005 -3.41992,3 1.22,0.949995 2.39992,2.619453 3.66992,2.689453 3.82,0.21 7.66977,-0.359375 11.50977,-0.359375 6.57995,-0.06 13.15047,0 19.73047,0 l 0.15039,1.550782 c -3.58,3.85998 -7.44044,7.498696 -10.65039,11.638671 a 11.35,11.35 0 0 1 -10.31055,4.720703 c -2.27,-0.09 -4.56938,0.580157 -6.85938,0.910157 l 0.21094,1.65039 h 9.79883 A 10.76,10.76 0 0 1 153.75,101.16016 c -12.74995,14.8399 -25.47982,29.70989 -38.25977,44.33984 -12.7799,14.62995 -26.060159,28.81005 -42.830074,39 -15.109925,9.15995 -31.250085,14.41945 -49,9.68945 -10.12995,-2.69995 -18.4094654,-8.1688 -20.9394529,-19.46875 -0.159999,-0.7 -0.9010962,-1.32 -1.3710937,-2 L 0,173 c 0.30999845,2.36 0.19953555,4.86055 1.0195312,7.06055 3.059985,8.46995 9.7308258,13.30859 17.8007808,16.30859 13.539935,5.05 27.179128,3.34136 40.539063,-0.80859 21.099895,-6.55 38.301625,-19.5201 53.101565,-35.25 17.0999,-18.1799 33.03927,-37.47135 49.19922,-56.53125 3.21995,-3.799995 6.40039,-5.840159 11.40039,-5.410159 a 58.94,58.94 0 0 0 7.83984,-0.308594 v -2 l -11.66992,-0.740235 a 13.68,13.68 0 0 1 1.28906,-2.210937 c 9.28995,-9.77995 18.07036,-20.000045 28.07031,-29 7.65,-6.849965 16.17966,-13.319634 25.34961,-17.849609 11.12995,-5.469975 23.12107,-6.580654 33.79102,2.529296 1.4,1.219995 3.31,1.871021 5,2.791016 -0.09,-1.91999 -0.19977,-3.839541 -0.25977,-5.769531 -0.01,-0.21 0.30875,-0.440161 0.46875,-0.660156 4.62,3.119985 6.74105,7.769941 4.6211,11.669921 -0.74,1.349995 -3.42008,1.689459 -5.83008,2.689454 a 5.15,5.15 0 0 0 -0.11133,1.320312 c 0.14,10.28995 -0.0198,9.779625 -9.75976,12.84961 -6.97,2.209985 -13.32915,6.00003 -17.11915,13 a 46.54,46.54 0 0 1 -6.90039,9.621093 c -8.00995,8.519949 -16.30903,16.758719 -24.45898,25.138669 -0.99,1.02 -1.81117,2.20083 -2.70117,3.30078 L 202.05078,126 c 11.69995,-9.99995 22.15013,-21.39997 32.58008,-32.919922 0.92,0.44 1.64836,0.74961 2.31836,1.09961 5.43995,3.00998 5.58159,3.670407 1.18164,8.150392 -3.48,3.54995 -7.10086,6.94945 -10.63086,10.43945 -6.94995,6.87995 -14.16953,13.59083 -17.26953,23.30078 -1.08,3.41 -2.00125,7.16985 1.21875,9.83985 3.22,2.66995 6.95153,1.42906 9.77148,-0.71094 9.65995,-7.32995 19.10865,-14.94888 28.5586,-22.54883 0.66,-0.51 0.69,-1.75067 1,-2.64062 l -1.13868,-0.85938 c -2.42995,2.18 -4.75031,4.51953 -7.32031,6.51953 -7.55995,5.86 -15.17044,11.67083 -22.90039,17.30078 -1.04,0.76 -2.90086,0.38883 -4.38086,0.54883 0.27,-1.64 0.0106,-3.67008 0.89063,-4.83008 2.89995,-3.80995 6.23942,-7.27973 9.35937,-10.92968 6.39,-7.51 13.34005,-14.65904 19,-22.70899 4.23,-6.029965 2.97003,-8.451581 -3.16992,-12.351561 -1.09,-0.67 -2.08984,-1.40961 -3.08984,-2.09961 3.58995,-7.119965 16.26086,-12.499995 24.13086,-12 12.8099,0.82 25.67939,0.660157 38.52929,0.660157 9.28995,0.01 18.58115,-0.439532 27.8711,-0.519532 10.71995,-0.08 21.4395,0 32.43945,0 2.32,-5.039975 4.99977,-10.489639 7.25977,-16.099609 0.54,-1.329995 -0.30954,-3.221338 -0.51954,-4.861328 -1.74995,0.559995 -3.83992,0.691489 -5.16992,1.771484 -3.56995,2.879985 -6.43,6.759698 -10.25,9.179688 -8.53995,5.41997 -18.3002,3.469687 -27.66015,3.179687 -1.2,-0.03 -3.27032,-2.5004 -3.32032,-3.90039 -0.32,-8.27996 -0.16015,-16.57942 -0.16015,-25.359375 h 12.50976 c 7.39,0.01 8.80083,1.049258 10.30078,8.449218 0.53,2.65999 1.75013,4.570152 4.33008,3.660157 1.28,-0.45 2.53938,-2.938838 2.60938,-4.548828 0.29,-6.87997 0.10039,-13.770426 0.15039,-20.650391 0.01,-2.35999 0.84042,-5.131016 -2.76953,-5.541016 -3.22,-0.369995 -3.94985,1.741417 -4.33985,4.441407 -0.57,3.88998 -2.20153,7.218676 -6.77148,7.388671 -5.08,0.14 -10.18005,0 -15.75,0 0,-8.149955 -0.19883,-15.970035 0.20117,-23.75 0.06,-1.25999 2.7393,-3.318672 4.2793,-3.3886715 a 138.34,138.34 0 0 1 17.75,0.3691406 c 4.88995,0.419998 8.65031,3.1497859 11.07031,7.5097659 0.69,1.25999 1,3.02 2,3.75 a 7.16,7.16 0 0 0 4.63086,1.140625 c 0.62,-0.07 1.65969,-2.320318 1.42969,-3.320313 -1.24,-5.56997 -2.78024,-11.0704184 -4.24024,-16.6503904 -19.7399,0 -39.28064,-0.090386 -58.81054,0.099609 -2.56,0.03 -6.94024,-2.44013255 -7.49024,2.3398438 -0.55,4.779976 4.24125,3.3216436 6.78125,3.9316406 3.86,0.929995 6.41016,2.2400986 6.41016,6.8300786 -0.1,17.15991 -0.07,34.318366 0,51.488281 0.02,3.68998 -1.71169,5.651333 -5.18164,6.361328 -5.07,1.039995 -10.00907,1.790151 -15.28907,0.410156 -4.31995,-1.119995 -6.71945,-2.790572 -6.93945,-7.560547 -0.69,-15.37992 -1.66023,-30.73945 -2.49023,-46.109375 -0.55,-9.999949 -0.49995,-9.9200098 9,-11.9999998 1.44,-0.2999985 2.44015,-2.1512555 3.66015,-3.28125 -1.42,-0.8499955 -2.80976,-2.3892192 -4.25976,-2.4492187 -6.86,-0.2699985 -13.74161,-0.2999985 -20.60156,0 a 6.23,6.23 0 0 0 -4.49024,2.8496094 c -4.20666,8.8132881 -8.20667,17.7269461 -12,26.7402341 -2.08,4.949975 -4.14911,9.230073 -10.78906,8.080078 -1.6,-0.269995 -3.46938,0.550157 -5.10938,1.160157 -2.96995,1.109995 -4.58109,0.369047 -5.87109,-2.710938 -4.5,-10.789945 -9.42891,-21.408805 -13.87891,-32.2187499 -1.32,-3.219984 -2.95109,-4.3013271 -6.37109,-4.1113281 -5.72995,0.3299985 -11.49028,0.1113281 -17.24023,0.1113281 -2.48,0 -5.70946,-0.87005915 -5.93946,2.9199219 -0.22,3.639982 3.23036,2.7003155 5.32031,3.3203125 0.61,0.179999 1.27044,0.1998447 1.90039,0.3398437 5.77,1.1799945 6.77008,2.3397178 6.08008,8.1796878 -1.79,15.119925 -3.70117,30.240153 -5.70117,45.330078 -0.96,7.049965 -10.32891,12.93851 -17.12891,11.228515 -5.13995,-1.28999 -8.14051,-4.688696 -9.98046,-9.388671 C 154.58016,44.690485 147.02023,25.969749 139.24023,7.3398438 138.12028,4.6198573 136.2,0.85984115 134,0.33984375 133.465,0.2135944 132.98836,0.18035176 132.5625,0.22265625 Z M 461.38672,1.2128906 c -1.39,0.0925 -2.51227,0.7214954 -2.69727,2.8964844 -0.37,4.3499785 3.97071,3.18094 6.47071,3.7109375 5.92995,1.2599935 6.81054,2.1303435 6.81054,8.3203125 v 46.138672 c 0,9.239955 -0.15047,9.520869 -9.23047,11.130859 -2.21995,0.38 -4.67015,0.668921 -3.91015,3.378906 0.35,1.219995 2.99914,2.511719 4.61914,2.511719 9.90995,0.22 19.83052,0.259215 29.73047,-0.05078 2.67995,-0.08 7.28953,2.560678 7.76953,-2.529297 0.44,-4.669975 -4.35914,-3.260786 -6.86914,-3.800781 -4.34,-0.939995 -6.31016,-2.850494 -6.16016,-7.480469 0.27,-8.32996 0.0801,-16.67004 0.0801,-25 h -0.10938 V 18.330078 c -0.01,-9.079954 0.10998,-9.3296172 8.91993,-10.8496092 2.11995,-0.3699985 4.74,-0.4312645 4,-3.28125 -0.32,-1.229994 -2.87141,-2.6601563 -4.44141,-2.6601563 -10.21995,-0.209999 -20.45974,-0.179999 -30.67969,0 -1.255,0.025 -2.91273,-0.4186714 -4.30273,-0.3261719 z m -89.53711,0.3378906 c -1.13,0.01 -2.24891,1.5892233 -3.37891,2.4492188 0.9,1.0999945 1.59,2.6194561 2.75,3.1894531 1.52,0.6899965 3.40868,0.670002 5.13868,1 3.62995,0.6999965 5.36132,2.5996299 5.36132,6.5996089 -0.15333,16.99992 -0.15333,34.000085 0,51 0.06,4.42998 -1.78,6.550005 -6,7 a 8.23,8.23 0 0 0 -3.27148,0.671876 c -1.4,0.849995 -3.44914,2.008286 -3.61914,3.238281 -0.4,3.099985 2.25008,2.710937 4.33008,2.710937 10.22995,-0.02 20.46903,0.08062 30.70898,-0.109375 2.53,-0.04 6.62031,1.999277 7.07031,-2.470703 0.45,-4.469975 -4.01922,-2.959766 -6.44922,-3.759766 -2.86995,-0.949995 -6.48937,-1.121113 -6.60937,-5.121093 -0.25,-7.80996 -0.0703,-15.59965 -0.0703,-23.59961 6.81995,-0.669995 9.66856,3.649552 12.47851,7.769532 5.72,8.129955 11.19005,16.470743 17,24.470703 a 7.27,7.27 0 0 0 4.83008,2.769531 c 6.52995,0.29 13.09114,0.26 19.62109,0 1.49,-0.06 2.90915,-1.589458 4.36915,-2.439453 -1.21,-1.129995 -2.25844,-2.939297 -3.64844,-3.279297 -5.03,-1.189995 -10.11133,-2.040962 -13.36133,-6.710937 -5.83329,-8.406627 -11.66977,-16.820275 -17.50977,-25.240235 3.37,-2.12999 6.63977,-3.888916 9.50977,-6.128906 11.03995,-8.61996 9.82084,-23.840655 -2.78906,-29.8906251 a 46.27,46.27 0 0 0 -16.6211,-4 c -7.99995,-0.5099975 -16,0.4296875 -24,0.4296875 -5.27995,0.02 -10.55989,-0.5488282 -15.83984,-0.5488282 z m 34.41016,6.1816407 c 5.13464,-0.2371865 10.54312,1.6367321 12.89062,4.6367191 3.38,4.329975 3.91894,14.630884 0.45899,19.630859 a 11.93,11.93 0 0 1 -6.28907,4.689453 c -4.84995,1.129995 -9.93981,1.249844 -15.50976,1.839844 0,-9.379955 -0.14985,-17.650201 0.16015,-25.910156 0.05,-1.379995 1.90919,-3.368206 3.36914,-3.9082035 1.5275,-0.584997 3.20836,-0.8994536 4.91993,-0.9785156 z m 225.33007,13.7968751 8.08008,21 H 622.75977 Z M 129.5293,21.660156 c 2.95995,7.549965 5.46,13.920035 8.25,21 h -17.0586 z m 129.30078,1.060547 1.05078,0.179688 0.89844,20.480468 -9.22852,-4.050781 z m -56.11914,1.929688 c 3.11995,7.029965 6.31953,14.019175 9.26953,21.11914 0.29,0.68 -0.65075,2.381407 -1.4707,2.941407 -3.27,2.259985 -6.71966,4.21001 -11.34961,7 0.93,-10.92995 1.76937,-20.8313 2.60937,-30.78125 z M 661.63086,90.580078 A 84.44,84.44 0 0 0 651.94922,92.160156 28,28 0 0 0 631,117.91992 a 25.65,25.65 0 0 0 18.13086,26.4707 53.78,53.78 0 0 0 20.72852,2.0586 c 19.7699,-1.93 30.99963,-20.76924 23.17968,-38.61914 -5.55995,-12.669945 -16.6483,-16.930002 -31.4082,-17.250002 z m 112.14062,0.789063 c -0.95244,0.08572 -1.98632,0.282812 -3.11132,0.601562 -1.45,0.42 -3.21977,-0.400156 -4.75977,-0.160156 a 20,20 0 0 0 -4.28125,1.728515 16.69,16.69 0 0 0 3.56055,2.291016 c 2.80995,0.959995 6.3007,0.869482 5.7207,5.439452 -1.45,11.60995 -2.75055,23.24013 -4.31055,34.83008 a 6.74,6.74 0 0 1 -2.49023,4.29101 c -4.49,2.93 -13.09961,1.51899 -16.34961,-2.79101 -4.32,-5.72995 -8.25,-11.77044 -12.5,-17.90039 a 70.37,70.37 0 0 0 7,-4.56836 c 7.83995,-6.71995 5.87909,-17.921661 -3.88086,-21.431641 a 35.86,35.86 0 0 0 -10.78906,-1.929688 c -8.34995,-0.299995 -16.68005,-0.17 -25,0 -1.36,0.02 -2.68,1.070391 -4,1.650391 1.15,0.819995 2.2307,2.179609 3.4707,2.349609 4.32,0.6 5.85828,2.710884 5.73828,7.130859 -0.28,10.24995 -0.3,20.51935 0,30.7793 0.14,4.76995 -0.96903,7.70969 -6.20898,8.17969 -1.02,0.09 -1.86914,1.51031 -2.86914,2.32031 1.15,0.58 2.29898,1.66015 3.45898,1.66015 7.03995,0.18 14.11919,0.19 21.11914,0 1.46,-0.03 2.97094,-1.03961 4.46094,-1.59961 -1.25,-0.84995 -2.49,-1.69929 -3.75,-2.52929 -1.75,-1.16 -4.86,-2.17 -5,-3.5 -0.57,-5.45 -0.24023,-10.99005 -0.24023,-16.5 l 1.39062,-0.88086 c 2.01,1.53 4.45969,2.71067 5.92969,4.64062 4.35995,5.73 8.20078,11.85966 12.55078,17.59961 a 7.32,7.32 0 0 0 4.91992,2.69922 c 11.35995,0.25 22.71841,0.22 34.06836,0.0898 1.47,-0.01 2.92086,-1.06868 4.38086,-1.63868 -1.26,-0.88 -2.43906,-2.34148 -3.78906,-2.52148 -4.27,-0.58 -5.70063,-2.64919 -5.14063,-6.86914 0.73,-5.87 1.17047,-11.80099 1.73047,-17.71094 0.27,-2.84 0.55989,-5.67953 0.83984,-8.51953 6.01,11.63995 11.05024,23.23005 16.24024,34.75 0.65,1.43 2.14981,2.45969 3.25976,3.67969 1.13,-1.2 2.67985,-2.19891 3.33985,-3.62891 5.19995,-11.17995 10.21036,-22.4595 15.32031,-33.68945 a 28.73,28.73 0 0 1 2.09961,-3.14063 c 0.49,9.86995 0.72992,18.66974 1.41992,27.42969 0.37,4.64 -0.75989,7.40055 -5.83984,7.81055 -1.08,0.09 -2.08008,1.43922 -3.08008,2.19922 1.09,0.64995 2.17906,1.84961 3.28906,1.84961 7.65333,0.17329 15.32005,0.17329 23,0 1.12,-0.02 2.21032,-1.21891 3.32032,-1.87891 -1.02,-0.73 -1.99985,-2.00133 -3.08985,-2.11133 -4.69995,-0.46 -6.49937,-2.74883 -6.60937,-7.54883 -0.22,-10.08995 -0.82063,-20.19005 -1.64063,-30.25 -0.4,-4.989965 0.63977,-8.119924 6.25977,-8.419919 0.88,-0.05 1.67953,-1.431177 2.51953,-2.201172 -0.97,-0.59 -1.91016,-1.689453 -2.91016,-1.689453 a 143.69,143.69 0 0 0 -14.3789,0 5,5 0 0 0 -3.33008,2.621093 c -2.3,4.57998 -4.24938,9.330001 -6.35938,14.000001 -3.30995,7.28995 -6.6602,14.5693 -10.41015,22.7793 -4.55,-10.40995 -8.97083,-19.63951 -12.55078,-29.18946 -2.37125,-6.369955 -5.07093,-11.201617 -11.73829,-10.601559 z m -203.4121,0.300781 c -12.68995,0.19 -25.3501,-1.4e-4 -38,0.08984 -1.3,0 -2.65005,0.929692 -4,1.429687 1.26995,0.889995 2.43156,2.149844 3.85156,2.589844 2.70995,0.839995 5.21875,1.360078 5.21875,5.080083 -0.12,11.8599 0.0309,23.72989 -0.11914,35.58984 a 5.47,5.47 0 0 1 -1.91016,4 c -4.39995,2.98 -14.09039,1.73042 -17.40039,-2.51953 -4.5,-5.79 -8.48922,-11.97938 -12.94922,-18.35938 2.2,-1.28 3.78883,-2.05125 5.29883,-3.03125 4.31,-3.00995 7.34972,-6.78875 6.50977,-12.46875 -0.84,-5.67996 -4.40974,-9.230081 -9.67969,-10.830076 a 37.79,37.79 0 0 0 -9.91016,-1.541015 c -8.34995,-0.2 -16.68005,-0.09969 -25,0.07031 -1.29,0.03 -2.56942,1.080157 -3.85937,1.660157 1.16,0.799995 2.25,2.121015 3.5,2.291015 4.26995,0.6 5.92054,2.610107 5.81054,7.080077 -0.29,10.56995 -0.28,21.16833 0,31.73828 0.12,4.39 -1.39164,6.56047 -5.68164,7.23047 -1.29,0.2 -2.40937,1.44117 -3.60937,2.20117 1.27,0.65 2.52078,1.86914 3.80078,1.86914 7.20662,0.18 14.40632,0.18 21.59961,0 1.32,-0.03 2.6102,-1.15929 3.91015,-1.77929 -1.16995,-0.78 -2.34976,-1.54961 -3.50976,-2.34961 -1.94,-1.34 -5.32078,-2.5018 -5.55078,-4.0918 -0.71,-5.13995 -0.25977,-10.43969 -0.25977,-15.67969 l 1.2207,-1 c 2.07,1.39 4.63032,2.37047 6.07032,4.23047 4.39995,5.7 8.18942,11.87055 12.60937,17.56055 a 8.44,8.44 0 0 0 5.73047,3 c 16.8099,0.17 33.61979,-0.13 50.42969,0 12.06995,0.08 12.09942,0.29026 16.35937,-11.17969 0.37,-0.98 -0.0591,-2.25062 -0.11914,-3.39062 -1.24,0.28 -3.09086,0.2 -3.63086,1 -6.17995,9.12995 -15.44044,9.35968 -24.90039,8.67968 -1.34,-0.09 -3.53914,-2.05929 -3.61914,-3.27929 -0.39,-5.69 -0.16992,-11.42974 -0.16992,-17.42969 h 8.69922 c 3.86,-0.01 6.31984,1.50891 7.08984,5.62891 0.21,1.15995 1.79102,2.08984 2.79102,3.08984 0.67,-1.37 1.8402,-2.71891 1.91015,-4.12891 0.22,-4.41995 0.14005,-8.94992 -0.0801,-13.41992 -0.07,-1.33 -1.00102,-2.62164 -1.54102,-3.93164 -1.13,1.05 -2.73891,1.93141 -3.12891,3.19141 -0.89995,2.89995 -2.14117,5.02961 -5.45117,5.09961 -3.30995,0.07 -6.60859,0 -10.30859,0 0,-5.54 -0.13,-10.48044 0.0898,-15.40039 a 4.56,4.56 0 0 1 2,-3.339848 c 6.62,-3.089985 17.75985,0.640178 21.83985,6.910158 0.58,0.9 2.19012,1.14922 3.33007,1.69922 0.36,-1.22 1.15,-2.47891 1,-3.62891 -0.27995,-2.199985 -1.39156,-4.300014 -1.60156,-6.499999 -0.3,-3.109985 -1.67973,-3.730469 -4.67968,-3.730469 z m 15.23046,0.07031 c -1.31995,0.01 -2.62945,1.039849 -3.93945,1.589844 1.14,0.819995 2.19945,2.159375 3.43945,2.359375 4.22,0.659995 5.93032,2.621357 5.82032,7.111327 -0.28,10.56995 -0.2393,21.17005 0.0605,31.75 0.13,4.45 -1.58153,6.46922 -5.77148,7.19922 -1.29,0.22 -2.39989,1.4507 -3.58984,2.2207 1.26995,0.63 2.53054,1.8086 3.81054,1.8086 7.20662,0.18 14.40938,0.18 21.60938,0 1.32,-0.03 2.62164,-1.14 3.93164,-1.75 l -3.52149,-2.43946 c -1.89995,-1.29995 -5.23992,-2.47 -5.41992,-4 -0.65,-5.63995 -0.25976,-11.38895 -0.25976,-16.8789 a 10.5,10.5 0 0 1 1.48046,-0.53125 c 0.64,-0.07 1.27993,-0.0703 1.91993,-0.0703 5.48995,-0.31 10.83012,-0.51 11.83007,7 0.09,0.64995 1.87891,1.10039 2.87891,1.65039 0.45,-1.06 1.45117,-2.10969 1.45117,-3.17969 0.13,-4.64 0.11914,-9.28997 -0.13086,-13.91992 -0.08,-1.45 -1.08015,-2.84954 -1.66015,-4.26954 -1.07,1.14 -2.08922,2.31993 -3.19922,3.41993 -1.67,1.67 -3.16016,4.07992 -5.16016,4.66992 -2.77,0.8 -5.94969,0.19922 -9.42969,0.19922 0,-5.57 -0.13937,-10.68059 0.14063,-15.810549 a 4.33,4.33 0 0 1 2.38867,-3 c 7.44995,-2.70999 16.45122,0.490429 21.45117,7.150389 0.58,0.82 2,1.06031 3,1.57031 0.4,-1.17 1.25985,-2.41023 1.08985,-3.49023 A 26.4,26.4 0 0 0 627.71094,94.75 c -0.68,-1.309995 -2.40164,-2.919922 -3.68164,-2.919922 -12.80995,-0.23 -25.62951,-0.19986 -38.43946,-0.08984 z m 76.46289,3.253907 c 7.9374,-0.385449 16.04454,3.981689 19.45704,12.275389 1.48995,3.63 1.94109,7.69083 2.87109,11.55078 -0.24,15.95995 -10.96135,25.84977 -25.53125,23.25977 -6.13995,-1.06 -10.36911,-4.65005 -13.28906,-10 -5.04,-9.22995 -3.4305,-23.77013 3.43945,-31.08008 3.58875,-3.83248 8.29034,-5.774594 13.05273,-6.005859 z m 62.0586,0.748047 c 4.59558,-0.196875 9.95625,2.835402 10.96875,7.087892 2.53,10.57995 -3.9908,16.17015 -16.4707,13.66015 -10e-6,-5.59995 -0.0495,-11.30981 0.0605,-17.009761 a 3.51,3.51 0 0 1 1.29102,-2.390625 c 1.1725,-0.857495 2.61851,-1.282036 4.15039,-1.347656 z m -227.97071,1.304687 c 2.04375,0.0525 4.01376,0.303755 5.71876,1.09375 3.95995,1.82999 3.71093,6.569735 3.21093,10.679685 -0.49,4.31 -2.72,7.24997 -7,7.91992 -2.92995,0.46 -5.98992,0.0898 -9.66992,0.0898 0,-5.83 -0.0907,-11.20985 0.0293,-16.58985 0.03,-1.099975 1.01078,-3.099605 1.55078,-3.099605 2,0 4.11645,-0.14625 6.16015,-0.09375 z m -93.04296,0.02344 c 0.042,0.03492 0.085,0.06861 0.12695,0.103516 0.009,-0.0317 0.0223,-0.06916 0.0312,-0.101562 -0.0528,-5.71e-4 -0.10546,-0.0014 -0.1582,-0.002 z" />
  <path
     id="path46"
     style="fill:#120e3c;fill-opacity:1"
     d="m 242.64844,49.046875 c -4.80984,-0.145234 -6.17125,4.747352 -8.21875,9.183594 -1.43,-2.729996 -2.43955,-4.640161 -3.76953,-7.160157 -3.8,1.829998 -7.6593,3.510083 -11.2793,5.580079 -0.74,0.419998 -1.21031,2.560002 -0.82031,3.5 2.52998,6.229986 5.21937,12.410246 8.10937,18.490234 1.53,3.219994 5.19946,3.4989 6.68946,0.378906 4.60998,-9.57998 8.8607,-19.360018 13.2207,-29 -1.52813,-0.637498 -2.82168,-0.93914 -3.93164,-0.972656 z m -38.26172,23.318359 c -3.58163,-0.110698 -6.74985,1.876962 -10.38672,6.345704 5.23998,0.289998 9.70086,0.668124 14.13086,0.578124 1.08,-0.02 2.51008,-1.498439 3.08008,-2.648437 0.29,-0.579998 -0.74158,-2.46133 -1.60156,-2.861328 -1.88125,-0.881248 -3.59465,-1.363745 -5.22266,-1.414063 z m -0.67969,18.675782 c -2.13125,-0.06375 -4.36695,0.264375 -6.12695,0.859375 C 180.7101,97.580379 167.85904,108.57004 159.03906,124 c -2.48,4.33 -3.7982,9.32 -5.6582,14 1.03,7.66998 5.49994,10.84 12.41992,8.5 a 17.65,17.65 0 0 0 3.50977,-1.51953 107,107 0 0 0 39.42968,-41 c 1.95,-3.59 4.24069,-8.711179 0.47071,-11.451173 -1.345,-0.969998 -3.37266,-1.424531 -5.50391,-1.488281 z m 2.77344,1.21875 v 0.0098 c 0.39,2.599996 1.31875,4.51133 0.71875,5.611328 -2.74,4.799991 -5.28883,10.000001 -9.04883,14.000001 -9.61998,10.23998 -19.74971,20.01924 -29.92969,29.69922 -1.92998,1.81 -5.22047,4.99054 -7.73047,1.81054 -1.13998,-1.43998 0.0698,-5.85054 1.50977,-8.06054 a 147.67,147.67 0 0 1 36.41992,-38.541018 c 2.06,-1.529996 4.37055,-2.5293 8.06055,-4.529296 z m 73.18945,0.292968 c -0.25951,0.03693 -0.10806,0.05969 0.1582,0.07813 -0.0597,-0.02691 -0.0956,-0.0508 -0.1582,-0.07813 z" />
  <path
     id="path44-70"
     d="m 136.27344,521.82031 c 0.74542,0.0715 1.49185,0.12834 2.23828,0.18946 -0.27097,-0.0648 -0.54851,-0.0954 -0.81836,-0.16602 -0.44423,-0.002 0.77565,0.002 -0.23242,-0.006 -0.39583,-0.004 -0.79166,-0.0138 -1.1875,-0.0176 z m 2.42187,0.0527 c 0.12862,-0.0112 -0.23342,0.0159 0.46875,0.0488 0.1481,0.007 -0.57926,0.006 -0.4414,-0.0488 0.003,-0.001 -0.034,10e-4 -0.0273,0 z m -2.19336,50.14453 c -0.0698,0.15844 -0.13798,0.3178 -0.20703,0.47656 0.0159,0.0829 0.0126,0.10595 0.0293,0.19141 0.0765,-0.002 0.16804,-0.004 0.24609,-0.006 -0.0126,-0.28194 -0.0502,-0.40356 -0.0684,-0.66211 z m -28.58789,19.73828 c -0.0151,0.0145 -0.0298,0.0346 -0.0449,0.0488 0.008,0.005 0.0173,0.0125 0.0254,0.0176 0.007,-0.022 0.0125,-0.0444 0.0195,-0.0664 z m 342.1543,2.0918 c -0.56512,0.0894 -1.12803,0.1932 -1.69336,0.28125 a 53.78,53.78 0 0 0 2.52148,0.006 c -0.27417,-0.10273 -0.54279,-0.18057 -0.82812,-0.28711 z" />
  <g
     id="g1832"
     transform="matrix(0.8660609,0,0,1,62.034902,-202.31301)">
    <g
       id="g1283">
      <g
         id="g759">
        <path
           id="path44-4"
           d="m 255.11133,293.68555 c -6.40735,-0.007 -12.8138,0.0269 -19.21875,0.082 -1.32,0.01 -2.63149,1.03992 -3.94141,1.58984 1.13992,0.82 2.20141,2.15938 3.44141,2.35938 4.21998,0.66 5.92836,2.61939 5.81836,7.10937 -0.28,10.56982 -0.23902,21.1701 0.0605,31.75 0.13,4.44992 -1.57961,6.47117 -5.76953,7.20117 -1.29,0.22 -2.39984,1.44875 -3.58984,2.21875 1.27,0.63 2.52859,1.81055 3.80859,1.81055 7.20659,0.18 14.41143,0.18 21.61133,0 1.32,-0.03 2.61969,-1.14 3.92969,-1.75 l -3.51953,-2.43945 c -1.9,-1.3 -5.23992,-2.47 -5.41992,-4 -0.65,-5.63992 -0.25977,-11.39088 -0.25977,-16.88086 a 10.5,10.5 0 0 1 1.47852,-0.5293 c 0.63998,-0.07 1.27992,-0.0703 1.91992,-0.0703 5.48998,-0.31 10.83008,-0.5099 11.83008,7 0.09,0.65 1.88086,1.10039 2.88086,1.65039 0.44998,-1.06 1.44921,-2.10969 1.44921,-3.17969 0.13,-4.6399 0.1211,-9.28992 -0.1289,-13.91992 -0.08,-1.45 -1.08016,-2.8515 -1.66016,-4.27148 -1.06992,1.13998 -2.09117,2.31992 -3.20117,3.41992 -1.67,1.67 -3.16024,4.07992 -5.16016,4.66992 -2.76998,0.8 -5.9497,0.20117 -9.42968,0.20117 0,-5.5699 -0.13938,-10.68063 0.14062,-15.81055 a 4.33,4.33 0 0 1 2.39063,-3 c 7.4499,-2.70998 16.44923,0.4904 21.44921,7.1504 0.5797,0.81956 1.99818,1.06084 2.99805,1.57031 -0.19361,-3.07233 -0.38163,-6.14305 -0.54492,-9.2168 a 26.4,26.4 0 0 0 -0.46289,-1.62305 c -0.68,-1.30998 -2.39969,-2.91991 -3.67969,-2.91992 -6.4049,-0.11495 -12.81334,-0.16439 -19.2207,-0.17187 z" />
        <path
           id="path44-2"
           d="m 291.15325,292.72409 c -1.28,1.43982 -2.97971,2.67937 -3.76953,4.35937 -6.08,12.88982 -11.92987,25.83026 -17.92969,38.83008 -1.71,3.73 -3.69096,7.1008 -8.30078,7.89062 -0.93,0.16 -1.65852,1.44893 -2.47852,2.21875 0.93,0.58 1.92969,1.66993 2.92969,1.66993 5.58982,0.15 11.18924,0.17 16.78906,0 1.16,-0.03 2.30117,-1.05891 3.45117,-1.62891 -1,-0.82 -1.88,-2.15086 -3,-2.38086 -3.99982,-0.79 -4.28,-2.84 -3,-6.25 3.99,-10.62982 3.90956,-10.62891 15.35938,-10.62891 a 17.25,17.25 0 0 1 2.88086,0.0586 c 0.74,0.13 1.84883,0.42164 2.04883,0.93164 1.86982,4.79982 3.59062,9.60955 5.39062,14.60937 a 23.41,23.41 0 0 0 -3.80078,1.10938 c -1.42,0.73 -2.69,1.65994 -4,2.50976 1.48,0.58 2.97047,1.61993 4.48047,1.66993 5.43982,0.16 10.88049,-0.0488 16.32031,-0.0488 1.04466,0.005 2.08845,0.004 3.13281,0.006 0.0676,-0.0549 0.13517,-0.10939 0.20117,-0.16602 0.54773,-0.51126 1.04817,-1.07154 1.48047,-1.68359 0.11314,-0.16328 0.21887,-0.33216 0.32617,-0.5 -0.075,-0.13354 -0.17013,-0.25488 -0.25585,-0.38281 0.006,0.0113 0.0256,0.0453 0.0176,0.0352 -0.13468,-0.17602 -0.28837,-0.40311 -0.39453,-0.56054 -0.18914,-0.25449 -0.31746,-0.54455 -0.47461,-0.81836 -0.084,-0.14633 -0.15521,-0.28929 -0.21875,-0.42969 -3.65852,-1.09961 -6.84487,-3.78269 -8.29492,-8.20117 -4.15982,-12.75982 -9.8,-25.0394 -15,-37.44922 -0.77,-1.77 -2.5708,-3.18971 -3.89062,-4.76953 z m -2.91993,14.90039 5.70118,14.69922 h -11.65039 c 1.88982,-4.7 3.64939,-9.0194 5.94921,-14.69922 z m 36.0879,38.41015 c 0.18249,0.37681 0.36424,0.41895 0.84374,0.44922 -0.34554,-0.19216 -0.62252,-0.33578 -0.84374,-0.44922 z" />
      </g>
      <path
         id="path44-7"
         d="m 340.76764,294.64799 c -0.70024,-0.0102 -1.3994,-0.004 -2.09704,0.0186 -4.18576,0.13737 -8.32388,0.91151 -12.37946,2.9405 -14.55924,7.28933 -19.58825,26.65947 -10.34815,40.75489 5.0464,7.69091 12.23869,11.09468 20.23177,11.15582 7.007,0.0477 14.02005,-1.14324 21.12565,-1.82386 0.87589,-4.41043 1.71172,-8.09982 2.29757,-11.83643 0.16242,-1.02775 -0.46957,-2.22559 -0.73639,-3.34862 -0.96871,0.58535 -2.15208,0.93257 -2.85384,1.81057 -1.67057,2.03493 -2.79018,4.77727 -4.64046,6.43799 -6.1311,5.51291 -13.04592,6.4937 -19.90209,2.41009 -7.42464,-4.39681 -10.72495,-12.10169 -10.40591,-21.77989 0.30163,-9.2087 3.73517,-16.4985 10.94518,-20.46654 8.78186,-4.81867 16.86768,-1.42268 21.82126,8.35093 0.42344,0.83704 1.73487,1.23911 2.68617,1.40245 0.29583,0.0477 1.17787,-1.42239 1.09667,-2.103 -0.47565,-4.17903 -1.16012,-8.35758 -1.74018,-12.44131 -2.57535,-0.3267 -4.9662,-0.64764 -7.36173,-0.91991 -1.88374,-0.21268 -3.7625,-0.39474 -5.63518,-0.49184 -0.70225,-0.0364 -1.40359,-0.0609 -2.10384,-0.0705 z m -72.92296,72.11004 c -0.0491,0.16624 -0.13087,0.31911 -0.18353,0.48388 0.1189,-0.0343 0.23857,-0.066 0.358,-0.0983 -0.059,-0.12436 -0.1152,-0.26207 -0.17447,-0.38551 z"
         style="stroke-width:0.628331" />
      <path
         id="path46-3"
         d="m 362.65884,294.46186 c -1.35999,3.77994 -2.84,7.50031 -4,11.32031 -0.28,0.94 0.48953,2.19078 0.76953,3.30078 1.08,-0.36 2.74016,-0.39109 3.16016,-1.12109 4.78997,-8.41994 12.54974,-8.89836 21.67969,-8.31836 0,12.86994 -0.16891,25.22904 0.12109,37.45898 0.1,4.49 -1.32042,6.90024 -5.90039,7.49024 -1.23999,0.17 -2.33024,1.49101 -3.49024,2.29101 1.29,0.62 2.58087,1.79883 3.88086,1.79883 7.04663,0.18667 14.08275,0.18667 21.10938,0 1.47999,-0.04 2.9304,-1.13023 4.40039,-1.74023 -1.33999,-0.85 -2.58001,-2.22946 -4,-2.43946 -4.13998,-0.63 -5.53969,-2.70914 -5.42969,-6.86914 0.25,-9.28994 0.0684,-18.59068 0.0684,-27.89062 v -9.74024 c 11.43994,-1.71 13.95141,-0.63054 20.44141,7.93946 a 4,4 0 0 0 3.18945,1.05078 c 0.5,-0.05 1.28062,-1.7811 1.14062,-2.6211 -0.69,-4.07994 -1.64117,-8.12021 -2.45117,-11.91015 z" />
      <path
         id="path44-8"
         d="m 438.73249,294.54251 c -4.34217,0.0805 -8.42558,1.25529 -12.01473,3.93297 -8.05661,5.91859 -8.09889,15.54969 0.126,21.19924 3.27448,2.2396 6.96995,3.91459 10.39871,5.93231 3.09925,1.86976 6.42999,3.57807 9.11548,5.94545 4.00379,3.51757 2.39109,10.36485 -2.51717,12.42293 -6.05821,2.51536 -14.03024,-0.0471 -17.20657,-5.6026 -0.91154,-1.60072 -1.41027,-3.44364 -2.47607,-4.93002 a 4.1650737,3.9950927 0 0 0 -2.93076,-1.34515 c -0.49785,-0.0605 -1.55659,1.28472 -1.52153,1.95729 0.21736,4.16317 0.67363,8.31976 1.03124,12.2745 4.05288,0.74656 7.76142,1.53305 11.48474,2.09127 6.55606,1.0156 12.94406,1.02204 18.93215,-2.40129 7.45359,-4.25733 11.79382,-17.43904 0.82034,-23.96966 -2.38405,-1.43259 -4.81636,-2.77832 -7.22144,-4.12347 -3.74428,-2.14551 -7.55884,-4.20392 -11.21906,-6.4906 -2.51018,-1.5402 -3.69526,-4.19021 -2.51032,-6.72574 0.92558,-2.05136 2.80484,-4.31703 4.90834,-5.13758 6.42283,-2.54906 12.13709,0.28912 14.45795,6.56416 0.28749,0.81382 0.39278,1.88321 0.9888,2.35401 a 3.8916093,3.7327885 0 0 0 2.8746,0.84729 c 0.6451,-0.16141 1.47251,-1.45964 1.40239,-2.1793 -0.36462,-3.70581 -0.99505,-7.39176 -1.54892,-11.20518 -4.5928,-0.48427 -9.03141,-1.14391 -13.49792,-1.37931 -0.6302,-0.032 -1.25592,-0.043 -1.87625,-0.0315 z m -43.42179,1.52247 c -0.0802,0.0614 -0.16167,0.12067 -0.2424,0.18128 0.22023,0.13143 0.41812,0.27402 0.62723,0.41116 -0.009,-0.10029 -0.0244,-0.19986 -0.0479,-0.29687 -0.11257,-0.0983 -0.22409,-0.19759 -0.33691,-0.29557 z"
         style="stroke-width:0.686733" />
    </g>
    <path
       style="fill:#120e3c;fill-opacity:1;stroke-width:0.620592"
       d="m 234.32564,345.98652 c -1.11994,-0.86136 -0.9881,-1.00339 2.26829,-2.44352 5.64876,-2.49815 5.43697,-1.57775 5.43697,-23.62779 0,-21.48133 0.0299,-21.31944 -4.19092,-22.69242 -1.27891,-0.41602 -2.84128,-1.11113 -3.47194,-1.54471 -2.5965,-1.78509 0.92022,-2.13803 21.3033,-2.13803 h 19.92795 l 1.46193,1.46193 c 1.17025,1.17024 1.55115,2.41403 1.9091,6.23382 0.24594,2.62455 0.28933,4.92972 0.0964,5.12262 -0.1929,0.1929 -1.85113,-1.0683 -3.68495,-2.80265 -1.83383,-1.73436 -4.93964,-3.88836 -6.90179,-4.78666 -3.09237,-1.41573 -4.21509,-1.60388 -8.42888,-1.41252 -7.33527,0.33311 -7.47017,0.53359 -7.47017,11.10147 0,9.62024 -0.21027,9.25833 5.38978,9.2766 3.8241,0.0125 5.36806,-0.79464 9.13066,-4.77314 l 3.39284,-3.58753 0.66253,1.74261 c 0.3644,0.95843 0.66254,5.18106 0.66254,9.38361 0,6.03492 -0.19567,7.80341 -0.93089,8.41358 -1.22187,1.01407 -2.56894,-0.051 -3.09526,-2.44731 -0.85579,-3.89638 -5.23464,-5.85946 -11.59614,-5.19866 l -3.52075,0.36572 -0.20281,4.41587 c -0.11154,2.42872 -0.10352,6.57786 0.0178,9.2203 l 0.22062,4.80443 3.68372,2.23774 3.68372,2.23774 3.31523,-1.56969 c 1.82338,-0.86333 3.9159,-2.41325 4.65005,-3.44427 0.73415,-1.03102 5.60677,-11.13481 10.82803,-22.45285 5.22126,-11.31805 10.20633,-21.45473 11.07794,-22.52596 l 1.58474,-1.94769 1.59828,1.48134 c 1.71634,1.59077 8.55137,17.12594 14.77515,33.58211 2.0009,5.29055 4.15095,10.3123 4.77786,11.15945 0.62692,0.84715 2.28898,2.10385 3.69346,2.79266 2.79305,1.36984 3.74247,2.98384 2.5795,4.38514 -1.01754,1.22606 -20.01724,1.27198 -22.21348,0.0537 l -1.44836,-0.80343 1.53887,-1.00831 c 0.84638,-0.55457 2.28868,-1.1965 3.20511,-1.42651 0.91643,-0.23001 1.79618,-0.75682 1.955,-1.17069 0.5173,-1.34806 -4.79694,-14.59306 -6.14447,-15.31424 -0.74675,-0.39965 -3.7019,-0.56823 -7.37489,-0.4207 -5.83269,0.23427 -6.21488,0.33505 -7.90957,2.08559 -1.91832,1.98154 -5.02494,9.16759 -5.02494,11.62341 0,1.46729 1.67998,3.55874 2.8586,3.55874 0.32383,0 1.22922,0.44858 2.01198,0.99684 l 1.42319,0.99685 -1.28046,0.89687 c -1.0231,0.7166 -3.12128,0.84177 -10.43884,0.62274 -5.03711,-0.15077 -9.43765,-0.27058 -9.77897,-0.26624 -0.34133,0.004 -6.06629,0.11109 -12.72214,0.23723 -9.96483,0.18885 -12.31149,0.0679 -13.29059,-0.68518 z m 60.45439,-24.36468 c -0.001,-0.54093 -5.48374,-14.53524 -5.82985,-14.88136 -0.21953,-0.21952 -2.4315,4.84372 -5.28117,12.08869 l -1.28151,3.25811 h 6.19686 c 3.40828,0 6.19633,-0.20945 6.19567,-0.46544 z"
       id="path1789" />
    <path
       style="fill:#120e3c;fill-opacity:1;stroke-width:0.620592"
       d="m 331.47792,348.72457 c -8.93912,-1.75676 -16.34569,-9.37232 -18.99046,-19.52627 -1.20525,-4.62727 -1.20318,-8.35553 0.007,-13.03141 1.48963,-5.75449 3.3079,-8.96883 7.38332,-13.05224 6.98221,-6.99592 14.09797,-8.99087 27.40291,-7.68262 4.25112,0.41801 7.89499,1.02808 8.09749,1.35573 0.56857,0.91997 1.96705,11.84612 1.62899,12.7271 -0.64687,1.68571 -1.65907,0.89413 -5.32938,-4.16779 -6.27078,-8.64833 -16.05895,-9.18774 -24.04076,-1.32485 -4.59006,4.52167 -6.20552,8.63814 -6.63808,16.91501 -0.57715,11.04363 3.2304,18.88151 11.07725,22.80263 8.09427,4.04475 16.83431,1.77261 21.8376,-5.67712 4.79546,-7.14026 6.07545,-6.30448 4.42071,2.88654 -0.55961,3.10826 -1.19583,5.84813 -1.41383,6.08859 -0.45025,0.49665 -17.59279,2.39122 -20.69752,2.28746 -1.11902,-0.0374 -3.25448,-0.30773 -4.74548,-0.60076 z"
       id="path1791" />
    <path
       style="fill:#120e3c;fill-opacity:1;stroke-width:0.620592"
       d="m 380.62911,348.25591 c -2.10522,-0.22773 -4.03006,-0.61676 -4.27743,-0.86451 -0.77313,-0.77431 1.00078,-2.29207 3.15017,-2.69529 1.13143,-0.21226 2.70915,-1.0796 3.50604,-1.92742 l 1.44889,-1.54149 0.17893,-21.13503 0.17892,-21.13503 -6.07455,0.29444 c -7.64438,0.37053 -10.77016,1.66331 -14.5035,5.99843 -4.94501,5.74209 -6.37895,3.79223 -3.39668,-4.61877 l 1.96421,-5.53972 27.073,-0.16163 c 25.39224,-0.15161 27.09245,-0.0938 27.38631,0.93088 0.96886,3.37846 2.28004,11.41325 1.9497,11.94774 -0.87556,1.41669 -2.81321,0.42894 -5.63281,-2.87144 -1.65608,-1.93845 -4.10996,-4.00691 -5.50557,-4.64081 -2.55504,-1.16053 -7.76732,-1.51732 -11.43884,-0.78302 l -1.93935,0.38787 0.009,20.24682 c 0.007,14.97069 0.21168,20.64708 0.78634,21.7828 0.49106,0.97049 1.91571,1.95663 3.86956,2.6785 3.87995,1.43349 4.47779,2.01479 2.92618,2.84519 -1.51855,0.81271 -16.44783,1.36517 -21.65867,0.80149 z"
       id="path1793" />
    <path
       style="fill:#120e3c;fill-opacity:1;stroke-width:0.620592"
       d="m 428.82911,347.54232 c -3.58392,-0.66416 -6.83517,-1.21756 -7.22501,-1.22976 -0.94706,-0.0297 -1.85559,-12.28995 -0.97592,-13.16963 1.21153,-1.21152 3.05999,0.16789 4.7797,3.56683 2.87476,5.68186 7.20804,8.33943 13.59779,8.33943 6.01514,0 9.1198,-2.53321 9.55635,-7.79736 0.28137,-3.39303 0.25194,-3.46506 -2.46857,-6.04115 -1.51433,-1.43395 -6.36739,-4.64593 -10.78457,-7.13774 -10.64679,-6.00602 -12.6586,-7.82573 -13.94869,-12.61674 -1.87511,-6.96364 5.67234,-15.15138 15.16603,-16.45264 1.52298,-0.20874 6.00264,-0.0312 9.95478,0.39449 8.12193,0.87488 7.26488,0.0808 8.3722,7.75667 0.5065,3.51097 0.46085,4.50484 -0.23906,5.20475 -1.36298,1.36298 -2.62658,0.41338 -4.37894,-3.29082 -2.14225,-4.52833 -4.47242,-6.14619 -9.27814,-6.44187 -3.15108,-0.19388 -4.09448,0.003 -5.90726,1.23473 -3.16137,2.14754 -5.1473,5.36012 -4.72398,7.64186 0.46568,2.51007 2.22585,3.85455 13.7097,10.47202 11.86974,6.83983 13.4761,8.49294 13.84238,14.24524 0.19593,3.07704 -0.0391,4.49029 -1.13441,6.8204 -3.8813,8.25712 -13.47153,11.17781 -27.91438,8.50129 z"
       id="path1795" />
  </g>
</svg>
